<svg width="191" height="40" viewBox="0 0 191 40" fill="none" xmlns="http://www.w3.org/2000/svg">
<g opacity="0.9">
<path d="M100.609 20.6932C100.442 20.6932 100.279 20.6435 100.139 20.5506C100 20.4576 99.8917 20.3254 99.8276 20.1708C99.7636 20.0162 99.7469 19.8461 99.7795 19.6819C99.8122 19.5178 99.8927 19.367 100.011 19.2487C100.129 19.1303 100.28 19.0497 100.444 19.0171C100.609 18.9844 100.779 19.0012 100.933 19.0652C101.088 19.1293 101.22 19.2377 101.313 19.3769C101.406 19.516 101.456 19.6796 101.456 19.847C101.456 20.0714 101.367 20.2866 101.208 20.4453C101.049 20.604 100.834 20.6932 100.609 20.6932ZM100.609 13.5007C99.36 13.4999 98.1383 13.8696 97.099 14.5632C96.0596 15.2568 95.2493 16.243 94.7706 17.3972C94.2918 18.5513 94.1662 19.8215 94.4095 21.0471C94.6527 22.2727 95.254 23.3986 96.1372 24.2824C97.0204 25.1663 98.1459 25.7683 99.3713 26.0123C100.597 26.2564 101.867 26.1316 103.022 25.6536C104.176 25.1756 105.163 24.366 105.857 23.3272C106.551 22.2883 106.922 21.0669 106.922 19.8174C106.922 18.1428 106.257 16.5368 105.073 15.3523C103.89 14.1678 102.284 13.5019 100.609 13.5007Z" fill="white"/>
<path d="M86.7155 20.6931C86.4871 20.6931 86.2681 20.6024 86.1066 20.4409C85.9452 20.2795 85.8545 20.0605 85.8545 19.8322C85.8545 19.6038 85.9452 19.3848 86.1066 19.2234C86.2681 19.0619 86.4871 18.9712 86.7155 18.9712H92.9686C92.7505 17.3855 91.9385 15.9418 90.6968 14.9318C89.4551 13.9219 87.8763 13.4209 86.2795 13.5303C84.6826 13.6396 83.1868 14.3511 82.0944 15.5209C81.0019 16.6907 80.3943 18.2316 80.3943 19.8322C80.3943 21.4328 81.0019 22.9736 82.0944 24.1434C83.1868 25.3133 84.6826 26.0247 86.2795 26.134C87.8763 26.2434 89.4551 25.7425 90.6968 24.7325C91.9385 23.7225 92.7505 22.2788 92.9686 20.6931H86.7155Z" fill="white"/>
<path d="M60.1839 13.8519V19.352C60.1839 19.5803 60.0932 19.7993 59.9317 19.9608C59.7703 20.1222 59.5513 20.2129 59.3229 20.2129C59.0946 20.2129 58.8756 20.1222 58.7141 19.9608C58.5527 19.7993 58.4619 19.5803 58.4619 19.352V13.8519H53.3215V19.847C53.3002 20.6474 53.4395 21.4439 53.7311 22.1896C54.0227 22.9353 54.4608 23.6151 55.0194 24.1887C55.578 24.7624 56.2458 25.2183 56.9835 25.5296C57.7212 25.8409 58.5138 26.0013 59.3145 26.0013C60.1151 26.0013 60.9078 25.8409 61.6454 25.5296C62.3831 25.2183 63.0509 24.7624 63.6095 24.1887C64.1681 23.6151 64.6062 22.9353 64.8978 22.1896C65.1894 21.4439 65.3287 20.6474 65.3075 19.847V13.8519H60.1839Z" fill="white"/>
<path d="M184.846 13.8603H178.851V18.9923H184.351C184.579 18.9923 184.798 19.083 184.959 19.2445C185.121 19.4059 185.212 19.6249 185.212 19.8533C185.212 20.0816 185.121 20.3006 184.959 20.4621C184.798 20.6235 184.579 20.7142 184.351 20.7142H178.851V25.8463H184.846C185.646 25.8675 186.443 25.7282 187.188 25.4366C187.934 25.145 188.614 24.707 189.187 24.1484C189.761 23.5898 190.217 22.9219 190.528 22.1842C190.84 21.4465 191 20.654 191 19.8533C191 19.0526 190.84 18.26 190.528 17.5223C190.217 16.7846 189.761 16.1168 189.187 15.5582C188.614 14.9996 187.934 14.5615 187.188 14.2699C186.443 13.9783 185.646 13.839 184.846 13.8603Z" fill="white"/>
<path d="M116.34 13.8602V17.8795L112.321 13.8602H108.335V25.8462H112.321V21.8269L116.34 25.8462H120.325V13.8602H116.34Z" fill="white"/>
<path d="M159.338 13.8602V17.8795L155.315 13.8602H151.333V25.8462H155.315V21.8269L159.338 25.8462H163.319V13.8602H159.338Z" fill="white"/>
<path d="M75.0636 13.8517V17.8753L71.04 13.8517H67.0588V25.8419H71.04V21.8184L75.0636 25.8419H79.0448V13.8517H75.0636Z" fill="white"/>
<path d="M136.017 13.8602H130.137H126.041H122.094V17.9515H126.041V25.8462H130.137V17.9515H133.919L136.017 13.8602Z" fill="white"/>
<path d="M144.149 25.8462H132.159L138.154 13.8602L144.149 25.8462Z" fill="white"/>
<path d="M149.611 13.8602H145.52V25.8462H149.611V13.8602Z" fill="white"/>
<path d="M170.118 22.7281V21.0061H174.658V18.7215H170.118V16.9995H177.082V13.8602H165.092V25.8462H177.082V22.7281H170.118Z" fill="white"/>
<path d="M18.1334 14.5626V1.73468H13.3271L18.1334 14.5626Z" fill="white"/>
<path d="M24.9749 20.5576L31.52 25.5585L22.9949 21.8776L31.245 39.0041C34.2689 37.3889 36.797 34.9824 38.5593 32.0419C40.3217 29.1014 41.252 25.7374 41.2509 22.3092V10.5982L24.9749 20.5576Z" fill="white"/>
<path d="M39.7743 10.3614V1.73468H23.5659V18.5354L39.7743 10.3614Z" fill="white"/>
<path d="M19.678 21.5942L19.6104 21.5603L6.78244 26.4935L18.1254 19.1276L1.94238 9.75629V20.6591C1.94224 23.8977 2.77322 27.0821 4.3558 29.9077C5.93838 32.7333 8.21958 35.1055 10.9812 36.7972C13.7427 38.489 16.8923 39.4437 20.1284 39.5701C23.3645 39.6965 26.5789 38.9903 29.464 37.5191L19.678 21.5942Z" fill="white"/>
<path d="M16.2041 15.506L11.7067 0H0V7.7932L16.2041 15.506Z" fill="white"/>
</g>
</svg>
